<?xml version="1.0" encoding="utf-8"?>
<!-- Generator: Adobe Illustrator 25.0.0, SVG Export Plug-In . SVG Version: 6.00 Build 0)  -->
<svg version="1.1" id="Capa_1" xmlns="http://www.w3.org/2000/svg" xmlns:xlink="http://www.w3.org/1999/xlink" x="0px" y="0px"
	 viewBox="0 0 306.4 306.4" style="enable-background:new 0 0 306.4 306.4;" xml:space="preserve">
<style type="text/css">
	.st0{fill:#006666;}
</style>
<g>
	<path class="st0" d="M133.7,0.6C59.8,0.6,0,60.4,0,134.2c0,73.8,59.8,133.7,133.7,133.7c1.1,0,2.2-0.1,3.4-0.1l-9.6-10.9
		c-0.3-0.5-8.1-13.4,9-27.6c12.1-10.1,29.5-1.1,38.9,5.2v-63.7c-10.2,11.6-25.1,18.9-41.7,18.9c-30.7,0-55.6-24.9-55.6-55.6
		s24.9-55.6,55.6-55.6c28.8,0,52.5,21.9,55.3,50c2.1-0.8,4.4-1.3,6.8-1.3c4.7,0,9,1.7,12.4,4.3v-7.4c0-11.2,9.1-20.4,20.4-20.4
		c10.6,0,19.2,8.2,20.2,18.5c3.5-2.8,7.8-4.5,12.6-4.5c1.8,0,3.5,0.3,5.1,0.7C258.7,52.2,202.2,0.6,133.7,0.6z M133.7,60.5
		c-40.7,0-73.8,33.1-73.8,73.8c0,2.9-2.4,5.3-5.3,5.3c-2.9,0-5.3-2.4-5.3-5.3c0-46.5,37.8-84.4,84.4-84.4c2.9,0,5.3,2.4,5.3,5.3
		C139,58.1,136.6,60.5,133.7,60.5z M133.7,30.1c-57.4,0-104.1,46.7-104.1,104.1c0,2.9-2.4,5.3-5.3,5.3c-2.9,0-5.3-2.4-5.3-5.3
		C19,71,70.4,19.5,133.7,19.5c2.9,0,5.3,2.4,5.3,5.3S136.6,30.1,133.7,30.1z"/>
	<path class="st0" d="M115.2,134.2c0,10.2,8.3,18.4,18.4,18.4s18.4-8.3,18.4-18.4s-8.3-18.4-18.4-18.4S115.2,124.1,115.2,134.2z"/>
	<path class="st0" d="M273.6,166.5v-28.1c0-4.7-2.7-8.7-6.5-10.8c-1.8-1-3.8-1.6-5.9-1.6c-6.8,0-12.4,5.6-12.4,12.4V200h-4h-4v-61.6
		v-14c0-6.8-5.6-12.4-12.4-12.4c-6.8,0-12.4,5.6-12.4,12.4v23.4V200l0,0h-8v-52.2c0-6.8-5.6-12.4-12.4-12.4c-2.5,0-4.7,0.7-6.7,2
		c-3.4,2.2-5.7,6-5.7,10.4V159v92.2l-6.6-5.7c-0.2-0.2-23.6-19.7-35.2-10.1c-10.7,8.9-8.1,15.8-7.5,17l13,14.7l34.1,38.6h125.3
		V166.5c0-6.8-5.6-12.4-12.4-12.4s-12.4,5.6-12.4,12.4V200h-8l0,0L273.6,166.5L273.6,166.5z"/>
</g>
</svg>
