<?xml version="1.0" encoding="utf-8"?>
<!-- Generator: Adobe Illustrator 25.0.0, SVG Export Plug-In . SVG Version: 6.00 Build 0)  -->
<svg version="1.1" id="Layer_1" xmlns="http://www.w3.org/2000/svg" xmlns:xlink="http://www.w3.org/1999/xlink" x="0px" y="0px"
	 viewBox="0 0 512 512" style="enable-background:new 0 0 512 512;" xml:space="preserve">
<style type="text/css">
	.st0{fill:#006666;}
</style>
<g>
	<g>
		
			<ellipse transform="matrix(0.1602 -0.9871 0.9871 0.1602 157.0641 344.1807)" class="st0" cx="280.8" cy="79.8" rx="38.7" ry="38.7"/>
	</g>
</g>
<g>
	<g>
		<path class="st0" d="M344.5,71c0-11.9-3.4-23.6-10-33.8c-9-13.9-22.9-23.4-39.1-26.8c-16.2-3.4-32.8-0.3-46.6,8.7
			c-10.3,6.7-18.2,16.1-23,27.1C218.9,48.7,213,56,211,65.4c-2.8,13.2,3,25.6,13,27.7c2.6,0.5,5.2,0.3,7.7-0.5l7.4-35
			c3.1-10.2,9.6-18.8,18.6-24.7c10.1-6.6,22.3-8.9,34.1-6.3c11.8,2.5,22,9.5,28.6,19.6s8.9,22.3,6.3,34.1l-6.4,31.1
			c1.9,1.7,4.2,3,6.8,3.5c10,2.1,20.4-6.9,23.2-20.1C352.5,85.3,349.9,76.1,344.5,71z"/>
	</g>
</g>
<g>
	<g>
		<path class="st0" d="M106.9,271.9H13.8c-7.3,0-13.1,5.9-13.1,13.1v226.7h119.4V285C120.1,277.8,114.2,271.9,106.9,271.9z
			 M60.3,463.8c-15.2,0-27.5-12.3-27.5-27.5s12.3-27.5,27.5-27.5s27.5,12.3,27.5,27.5S75.5,463.8,60.3,463.8z M60.3,378.9
			c-21.9,0-39.7-17.8-39.7-39.7s17.8-39.7,39.7-39.7s39.7,17.8,39.7,39.7C100,361.1,82.3,378.9,60.3,378.9z"/>
	</g>
</g>
<g>
	<g>
		<path class="st0" d="M498.2,272.2h-93.2c-7.3,0-13.1,5.9-13.1,13.1V512h119.4V285.3C511.4,278.1,505.5,272.2,498.2,272.2z
			 M451.7,461.1c-15.2,0-27.5-12.3-27.5-27.5s12.3-27.5,27.5-27.5c15.2,0,27.5,12.3,27.5,27.5S466.8,461.1,451.7,461.1z
			 M451.7,376.1c-21.9,0-39.7-17.8-39.7-39.7s17.8-39.7,39.7-39.7s39.7,17.8,39.7,39.7S473.6,376.1,451.7,376.1z"/>
	</g>
</g>
<g>
	<g>
		<circle class="st0" cx="60.3" cy="339.2" r="14.7"/>
	</g>
</g>
<g>
	<g>
		<circle class="st0" cx="60.3" cy="436.4" r="10.2"/>
	</g>
</g>
<g>
	<g>
		<circle class="st0" cx="451.7" cy="336.4" r="14.7"/>
	</g>
</g>
<g>
	<g>
		<circle class="st0" cx="451.7" cy="433.6" r="10.2"/>
	</g>
</g>
<g>
	<g>
		<path class="st0" d="M373.6,187.2c-17.9-14.7-38.4-31.5-48.6-39.8c-4.3-3.5-9.4-5.9-14.8-7.1c-21-4.4-74.8-15.8-81.3-17.2
			L166.2,102l-9.7-86.6c-1.1-9.5-9.6-16.3-19.1-15.2c-9.5,1.1-16.3,9.6-15.2,19.1l10.9,97.5c0.7,6.7,5.3,12.3,11.6,14.4l69.8,23.5
			L196.3,241c0.5,0.2,1.1,0.4,1.6,0.7c2.7-1.3,5.8-2.1,9-2.1c19.9,0,19.3-0.1,21.2,0.2c3.6-3.2,8.4-5.2,13.6-5.2h40l21.6-20.5
			l7.2-34.2l26.3,21.7c-9.2,8.8-31.7,30.4-38.8,37.3c-3.5,3.4-5.3,7.9-5.3,12.4h-51c-2.1,0-3.9,1.7-3.9,3.9V272H229v-11.9
			c0-2.1-1.7-3.9-3.9-3.9h-18.3c-2.1,0-3.9,1.7-3.9,3.9V272h-10.2v-11.9c0-2.1-1.7-3.9-3.9-3.9h-18.3c-2.1,0-3.9,1.7-3.9,3.9v11.9
			c-7.1,0.2-12.8,6-12.8,13.1v226.7h204.4V285.2c0-7.3-5.9-13.1-13.1-13.1h-6.3v-16.9c0-2.1-1.7-3.9-3.9-3.9h-0.1
			c18.2-17.5,22.1-21.2,39.8-38.2C382,205.8,381.6,193.8,373.6,187.2z"/>
	</g>
</g>
</svg>
