<?xml version="1.0" encoding="utf-8"?>
<!-- Generator: Adobe Illustrator 25.0.0, SVG Export Plug-In . SVG Version: 6.00 Build 0)  -->
<svg version="1.1" id="Layer_1" xmlns="http://www.w3.org/2000/svg" xmlns:xlink="http://www.w3.org/1999/xlink" x="0px" y="0px"
	 viewBox="0 0 708.7 512" style="enable-background:new 0 0 708.7 512;" xml:space="preserve">
<style type="text/css">
	.st0{fill:#006666;}
	.st1{fill:#FDCB46;}
</style>
<g>
	<g>
		<path class="st0" d="M414.4,180.8c-33.7,0-51.9,45.5-54.7,53c-1.4-13.2-7.1-26.9-19.3-42.5c-34.1-43.6-125.1-50.7-193.3-94.8
			c0,0-14,56.5,20.2,104.9l0,0c0,0,9,113.1,86.2,137.1l-0.2,0.2c0,0-46.1,27.1-154.9-3.2C109.1,482,351.8,473.3,411,350.7
			c24.9-51.5,29.7-110.6,58.5-121.6C456.1,209.4,449.8,180.8,414.4,180.8z M421.8,223c-4.6,0-8.3-3.7-8.3-8.3s3.7-8.3,8.3-8.3
			s8.3,3.7,8.3,8.3C430.1,219.3,426.4,223,421.8,223z"/>
	</g>
</g>
<g>
	<g>
		<polygon class="st1" points="488.3,229.1 536.7,269.8 594,243.1 		"/>
	</g>
</g>
<g>
	<g>
		<polygon class="st1" points="532,305.4 465.9,249.7 455.3,329.5 599.8,348.6 610.3,268.8 		"/>
	</g>
</g>
<g>
	<g>
		<path class="st0" d="M276.6,68.1c0,0-14.9,22.8-27.5,56.5c1.6,0.6,3.3,1.2,4.9,1.7c43.3,15.3,84.2,29.8,108.5,60.3
			c3.8-3.6,7.5-6.6,11.3-9.1C349.7,129.9,303.1,127.4,276.6,68.1z"/>
	</g>
</g>
</svg>
