<?xml version="1.0" encoding="utf-8"?>
<!-- Generator: Adobe Illustrator 25.0.0, SVG Export Plug-In . SVG Version: 6.00 Build 0)  -->
<svg version="1.1" id="Calque_1" xmlns="http://www.w3.org/2000/svg" xmlns:xlink="http://www.w3.org/1999/xlink" x="0px" y="0px"
	 viewBox="0 0 918.7 939" style="enable-background:new 0 0 918.7 939;" xml:space="preserve">
<style type="text/css">
	.st0{fill:#2F406A;}
	.st1{fill:#006666;}
	.st2{fill:#2379BD;}
	.st3{fill:#03AFEF;}
	.st4{fill:#006666;stroke:#4277BB;stroke-miterlimit:10;}
	.st5{fill:#026666;stroke:#4277BB;stroke-miterlimit:10;}
</style>
<path class="st0" d="M607.5,386.6v215.2L424.7,709.9l-1.7,1.5v80.4l1.7,1.6l257.5-148.7V344.9l-2.4-0.6l-72.6,40.6L607.5,386.6"/>
<path class="st1" d="M241.3,603.5l183.4,106.4v83.5L165.4,644.1V345.5l2.7-0.4l72.4,42.1l0.8,2.4L241.3,603.5"/>
<path class="st1" d="M241.3,389.6l-75.8-44.1l258.7-149.3l258.1,148.7l-74.7,41.7L424.1,282L241.3,389.6"/>
<path class="st0" d="M421.5,578.9l-2-2v-80.8l2-1l0.5-2l69.3-40.4l2.1,0.5v83.2L421.5,578.9"/>
<path class="st2" d="M348.5,539v-86.4l2-0.1l70.5,41l0.6,1.6v83.8L348.5,539"/>
<path class="st3" d="M420.3,410l-71.9,42.5l73.1,42.5l71.9-41.9L420.3,410"/>
<path class="st0" d="M332.1,631.6l-2-2v-80.8l2-1l0.5-2l69.3-40.4l2.1,0.5v83.2L332.1,631.6"/>
<path class="st4" d="M259,591.7v-86.4l2-0.1l70.5,41l0.6,1.6v83.8L259,591.7"/>
<path class="st4" d="M330.9,462.8L259,505.3l73.1,42.5l71.9-41.9L330.9,462.8"/>
<path class="st4" d="M517.3,633.6l-2-2v-80.8l2-1l0.5-2l69.3-40.4l2.1,0.5v83.2L517.3,633.6"/>
<path class="st1" d="M444.3,593.7v-86.4l2-0.1l70.5,41l0.6,1.6v83.8L444.3,593.7"/>
<path class="st4" d="M516.1,464.7l-71.9,42.5l73.1,42.5l71.9-41.9L516.1,464.7"/>
<path class="st4" d="M427.9,686.3l-2-2v-80.8l2-1l0.5-2l69.3-40.4l2.1,0.5v83.2L427.9,686.3"/>
<path class="st4" d="M354.8,646.4V560l2-0.1l70.5,41l0.6,1.6v83.8L354.8,646.4"/>
<path class="st4" d="M426.7,517.4L354.8,560l73.1,42.5l71.9-41.9L426.7,517.4"/>
<path class="st0" d="M421.5,464.3l-2-2v-80.8l2-1l0.5-2l69.3-40.4l2.1,0.5v83.2L421.5,464.3"/>
<path class="st1" d="M348.5,424.4V338l2-0.1l70.5,41l0.6,1.6v83.8L348.5,424.4"/>
<path class="st4" d="M420.3,295.5L348.5,338l73.1,42.5l71.9-41.9L420.3,295.5"/>
<path class="st0" d="M332.1,517l-2-2v-80.8l2-1l0.5-2l69.3-40.4l2.1,0.5v83.2L332.1,517"/>
<path class="st4" d="M259,477.1v-86.4l2-0.1l70.5,41l0.6,1.6V517L259,477.1"/>
<path class="st4" d="M330.9,348.2L259,390.7l73.1,42.5l71.9-41.9L330.9,348.2"/>
<path class="st4" d="M517.3,519l-2-2v-80.8l2-1l0.5-2l69.3-40.4l2.1,0.5v83.2L517.3,519"/>
<path class="st4" d="M444.3,479.1v-86.4l2-0.1l70.5,41l0.6,1.6V519L444.3,479.1"/>
<path class="st4" d="M516.1,350.2l-71.9,42.5l73.1,42.5l71.9-41.9L516.1,350.2"/>
<path class="st4" d="M427.9,571.7l-2-2v-80.8l2-1l0.5-2l69.3-40.4l2.1,0.5v83.2L427.9,571.7"/>
<path class="st4" d="M354.8,531.8v-86.4l2-0.1l70.5,41l0.6,1.6v83.8L354.8,531.8"/>
<path class="st5" d="M426.7,402.9l-71.9,42.5l73.1,42.5l71.9-41.9L426.7,402.9"/>
</svg>
