<?xml version="1.0" encoding="utf-8"?>
<!-- Generator: Adobe Illustrator 25.0.0, SVG Export Plug-In . SVG Version: 6.00 Build 0)  -->
<svg version="1.1" id="Calque_1" xmlns="http://www.w3.org/2000/svg" xmlns:xlink="http://www.w3.org/1999/xlink" x="0px" y="0px"
	 viewBox="0 0 256 257" style="enable-background:new 0 0 256 257;" xml:space="preserve">
<style type="text/css">
	.st0{fill:none;}
	.st1{fill:#066666;}
</style>
<circle class="st0" cx="128" cy="128.8" r="128"/>
<path class="st1" d="M183.7,48.1c-13,0.5-24.3,7.6-32.8,17.5c-9.3,10.9-15.6,23.7-20,36.9c-8-6.6-14.2-15.1-27-18.8
	c-9.9-2.9-20.4-1.7-30,5.5c-4.5,3.4-7.7,8.5-9.2,13.4c-3.9,12.5,4.1,23.7,7.6,27.7l7.9,8.4c1.6,1.7,5.5,6,3.6,12.1
	c-2.1,6.7-10.1,11.1-18.4,8.5c-3.7-1.1-9-3.9-7.8-7.8c0.5-1.6,1.6-2.8,2.2-4.2c0.6-1.2,0.8-2.1,1-2.6c1.5-5-0.6-11.4-5.9-13
	c-4.9-1.5-10-0.3-12,6.1c-2.2,7.2,1.2,20.4,19.8,26.1c21.7,6.7,40.1-5.2,42.7-20.6c1.6-9.7-2.7-16.8-10.7-26.1l-6.5-7.2
	c-3.9-3.9-5.3-10.7-1.2-15.8c3.4-4.4,8.4-6.2,16.4-4c11.7,3.2,17,11.3,25.7,17.9c-3.6,11.8-6,23.7-8.1,34.3l-1.3,7.9
	c-6.2,32.7-11,50.7-23.4,61c-2.5,1.8-6.1,4.4-11.4,4.6c-2.8,0.1-3.7-1.9-3.8-2.7c-0.1-2,1.6-2.9,2.7-3.8c1.7-0.9,4.2-2.4,4-7.2
	c-0.2-5.7-4.9-10.6-11.7-10.4c-5.1,0.2-12.8,5-12.5,13.7c0.3,9,8.7,15.8,21.4,15.4c6.8-0.2,22-3,36.9-20.8
	c17.4-20.4,22.3-43.7,25.9-60.8l4.1-22.6c2.3,0.3,4.7,0.5,7.3,0.5c21.7,0.5,32.5-10.8,32.7-18.9c0.1-4.9-3.2-9.8-7.9-9.7
	c-3.4,0.1-7.6,2.3-8.6,7c-1,4.6,6.9,8.7,0.7,12.7c-4.4,2.8-12.2,4.8-23.3,3.2l2-11.1c4.1-21.1,9.2-47,28.3-47.6
	c1.4-0.1,6.5,0.1,6.6,3.4c0,1.1-0.2,1.4-1.6,4c-1.3,2-1.9,3.7-1.8,5.7c0.2,5.4,4.3,8.9,10.2,8.7c7.9-0.3,10.2-8,10.1-11.9
	C206.5,53.6,196.7,47.7,183.7,48.1L183.7,48.1z"/>
</svg>
